<svg width="245" height="163" viewBox="0 0 245 163" fill="none" xmlns="http://www.w3.org/2000/svg">
<path d="M218.071 102.555C218.071 102.555 217.802 96.4865 217.802 93.6555C217.802 91.1253 217.157 88.52 216.156 87.7046C214.83 83.3479 210.126 83.5683 208.172 83.5683C205.886 83.5683 200.848 83.3617 198.629 83.3617C196.411 83.3617 191.566 82.4042 189.012 81.2926C186.457 80.1797 184.809 78.1074 184.474 78.713C184.138 79.3206 183.465 80.0289 182.524 79.8257C184.474 78.713 184.339 75.5793 184.071 75.1749C183.802 74.7704 182.725 74.6688 181.718 76.4888C182.322 74.7694 181.179 72.4446 180.574 71.9385C179.969 71.4325 179.365 71.6346 179.835 72.1406C180.306 72.6468 180.574 74.8711 179.902 75.7817C179.902 75.7817 177.818 77.7022 177.415 78.1076C177.012 78.5121 174.457 83.4668 173.986 83.8713C173.516 84.2755 172.642 84.9827 172.642 85.3883C172.642 85.7928 173.65 88.8763 174.188 88.8763C174.726 88.8763 178.927 89.6348 181.549 89.9387C181.549 89.9387 183.231 94.0376 184.071 97.6742C184.525 99.6439 185.012 103.779 185.617 105.407C186.894 108.845 188.575 111.778 188.575 113.598C188.575 115.419 188.575 119.463 188.575 119.463L187.835 121.384C187.835 121.384 188.373 121.89 189.382 121.89C190.39 121.89 190.524 120.778 190.524 120.272C190.524 119.767 190.524 112.688 190.524 112.688C190.524 112.688 190.255 110.767 190.255 109.552C190.255 108.339 191.332 101.867 191.398 100.958C191.398 100.958 191.533 103.182 191.533 103.789C191.533 103.789 194.667 105.423 196.273 105.663C198.962 106.068 200.844 106.878 204.744 106.27C207.897 105.78 210.395 102.98 210.395 102.98C210.395 102.98 210.125 101.058 210.462 100.047C210.999 105.71 214.092 109.654 214.092 109.957C214.092 110.261 213.618 119.366 213.618 119.366L213.012 121.489C213.012 121.489 213.218 121.991 214.227 121.991C215.235 121.991 215.571 121.081 215.571 119.969C215.571 118.856 216.915 109.35 216.983 108.643C217.051 107.935 216.58 102.878 216.445 102.373C216.34 101.976 216.441 95.4037 216.49 92.1117C217.071 95.0507 217.14 99.8684 216.996 101.341C216.693 104.424 217.533 107.408 217.533 107.408C217.533 107.408 217.802 108.419 218.206 106.195C218.609 103.971 218.071 102.555 218.071 102.555Z" fill="black"/>
<path d="M63.9005 108.61L63.1734 107.872L63.0413 106.856C61.587 105.872 60.1328 104.948 58.6785 104.087C57.0039 101.256 56.0785 97.9631 55.9022 94.2088C55.726 90.4546 55.4396 86.7311 55.0429 83.0383L54.1836 82.7615C51.0547 83.2538 47.8819 83.7154 44.6649 84.1462C41.492 84.577 38.4733 85.3771 35.6089 86.5465C34.7275 86.3619 33.9343 85.7772 33.2292 84.7924L32.3038 82.2999L31.2462 81.2844C31.4665 79.9304 31.2241 78.9149 30.519 78.2379C29.6817 77.9301 29.3733 77.0993 29.5936 75.7453C31.1801 74.7606 32.8106 74.0836 34.4852 73.7143C35.2343 74.7606 36.1377 75.1914 37.1953 75.0067C39.9716 74.3297 42.8361 73.8681 45.7886 73.622C48.7412 73.3758 51.6497 73.0065 54.5141 72.5142L54.7124 68.4522L54.3819 59.682C51.6937 60.2359 49.2699 60.8205 47.1106 61.436L45.1276 60.2359L43.6733 57.9279C43.3208 56.6355 43.0343 55.2199 42.814 53.6813L44.9954 52.4812L47.1106 52.9427L48.5649 52.6658C49.1818 53.1582 49.909 53.3429 50.7462 53.2198L54.3819 51.9273L54.514 47.2191C53.9411 45.0034 53.4564 42.7263 53.0598 40.3876L55.2412 39.9259C57.3124 39.9259 59.1191 40.8491 60.6615 42.6955L62.1158 44.9111C63.0853 45.4035 64.0548 46.1728 65.0243 47.2191L66.4124 52.4812C67.9989 52.9736 69.5192 53.6198 70.9734 54.4199C71.5463 55.4661 71.8328 56.6355 71.8328 57.928C70.9074 58.7896 69.8277 59.3743 68.5938 59.682L67.8666 59.4974C67.2938 60.1744 67.1175 61.0976 67.3378 62.267L67.5361 64.7594C66.5666 66.7288 66.2582 69.1291 66.6107 71.9602L67.8666 72.5141L68.9904 71.2217C71.6345 71.8987 74.1023 73.1603 76.3938 75.0067C76.7463 76.3607 77.0328 77.7762 77.2531 79.2533L75.6667 79.8072L75.4684 81.2843C73.0447 82.269 70.5108 82.6999 67.8667 82.5768C67.5582 84.977 67.5141 87.3773 67.7345 89.7776C67.8667 92.1779 68.0429 94.6089 68.2633 97.0707C67.9989 100.271 67.2718 103.102 66.0819 105.564C65.2446 105.256 64.7599 105.595 64.6277 106.579L63.9005 108.61ZM33.2292 61.9898L32.3038 60.5128L30.9156 58.4818L29.5936 59.4973L29.9902 57.4663L28.8665 55.9892L27.8088 50.7271C28.2936 48.0191 28.8885 45.465 29.5936 43.0647C30.3427 40.6029 31.3783 38.3872 32.7004 36.4178L32.3038 35.1254L33.0309 33.6483L33.9563 33.0944C34.6614 34.4484 35.5648 35.1254 36.6665 35.1254L37.3936 34.6638L38.6496 35.4023L39.575 35.1254L42.2852 40.1106C43.6954 41.3415 45.0615 42.9417 46.3835 44.9111L47.3089 45.465V46.9421L46.7801 47.9576L44.9954 50.9118C44.114 51.0964 43.3208 51.6195 42.6157 52.4812C41.2055 54.943 39.6411 57.1894 37.9224 59.2204C36.3801 60.082 34.8157 61.0051 33.2292 61.9898Z" fill="black"/>
<path d="M118.985 129.851L117.021 128.206C115.899 125.228 115.076 122.12 114.552 118.881L115.45 118.254C116.497 116.164 117.133 113.944 117.358 111.593C117.62 109.19 117.751 106.656 117.751 103.991C117.751 100.909 117.601 97.9574 117.302 95.1364C117.002 92.263 116.142 89.7031 114.721 87.4567L113.037 86.0462H105.799C105.201 86.0462 104.696 86.4641 104.284 87.3L103.835 89.4942C105.668 90.1733 107.426 90.9047 109.11 91.6883C110.793 92.4197 112.401 93.5168 113.935 94.9796L114.103 95.6065L111.017 98.1142L109.502 97.4872C107.969 96.9126 106.566 96.3379 105.294 95.7633C104.022 95.1363 102.825 94.2482 101.703 93.0989L100.637 95.058C100.113 94.9013 99.7016 95.2148 99.4023 95.9983L98.7851 96.5469L97.2702 95.5281C96.7465 94.3788 96.4846 93.0205 96.4846 91.4533L97.2702 86.8298C95.2128 86.3074 93.305 85.1842 91.5469 83.4602C91.9584 85.4977 92.1267 87.3784 92.0519 89.1024C91.5282 92.5503 90.8549 95.9722 90.0319 99.3679L90.2001 100.935L89.8634 101.876V103.991L90.3684 107.048L90.0317 108.38L90.3684 110.887C90.3684 112.873 90.518 114.544 90.8173 115.903L90.6489 119.978L89.5828 121.231L89.4144 122.955L89.8632 123.504L88.5166 123.034L87.8993 123.739L84.8133 125.62C83.6911 124.993 82.7746 124.053 82.0639 122.799C81.4654 120.187 80.9043 117.601 80.3806 115.041L80.549 113.63C80.0253 110.287 79.6886 106.865 79.539 103.365C79.3894 99.812 79.3146 96.2073 79.3146 92.5504L79.9318 79.4637L79.7634 77.3479L80.7173 74.997H82.064C82.6999 76.094 83.5228 76.5903 84.5328 76.4859L85.8795 75.7806L86.665 75.9373L87.5628 75.7806C88.9094 75.7806 89.9942 76.4858 90.8172 77.8964C90.9294 79.6204 91.1726 81.0832 91.5466 82.2847C93.1925 79.7249 95.2499 78.7845 97.7188 79.4637C98.205 79.9339 98.8035 80.0645 99.5143 79.8555C100.262 77.6091 100.88 75.441 101.366 73.3513C101.89 71.2094 102.413 68.9891 102.937 66.6904L103.666 66.2986L104.003 65.4366H105.069C106.902 66.4815 108.735 67.5263 110.568 68.5712L110.736 71.3139L109.053 73.9782L108.099 74.6051C107.613 75.7545 107.314 77.1128 107.201 78.68C109.857 78.9935 112.476 79.2547 115.057 79.4637C117.675 79.6203 120.069 80.6652 122.239 82.5982C123.361 84.9491 124.222 87.4567 124.82 90.1211C125.419 92.7854 125.718 95.6588 125.718 98.7411C125.98 103.182 126.036 107.701 125.886 112.298C125.699 114.701 125.419 117 125.045 119.194C124.708 121.388 124.016 123.347 122.969 125.071L122.071 125.463V126.795L120.668 127.579L120.556 128.441L119.321 129.146L118.985 129.851ZM107.819 118.724C106.398 118.149 104.957 117.365 103.498 116.373C102.077 115.328 100.712 114.335 99.4025 113.395C98.2803 114.335 97.1581 115.276 96.0359 116.216C94.9137 117.104 93.6231 117.548 92.1642 117.548C91.865 116.66 91.7715 115.589 91.8837 114.335C92.2952 112.089 93.1181 110.078 94.3526 108.301C95.9611 106.786 97.6631 105.663 99.4586 104.932C101.254 104.148 103.124 103.521 105.07 103.051L105.799 104.853L104.621 108.223L103.218 110.496C104.565 111.384 105.836 112.429 107.033 113.63C108.268 114.832 109.596 115.746 111.017 116.373C110.307 118.254 109.24 119.037 107.819 118.724Z" fill="black"/>
<path d="M157.649 115.975L156.354 113.638C155.418 113.487 154.608 112.959 153.924 112.054C153.204 110.496 152.898 108.762 153.006 106.851C153.006 100.568 153.528 94.485 154.572 88.6035C155.652 82.722 156.839 76.941 158.135 71.2605C159.035 71.8135 159.827 72.2156 160.511 72.467C162.023 71.5119 163.678 71.1851 165.478 71.4867L167.422 71.8638L167.746 70.8835C167.134 68.6214 166.774 66.2587 166.666 63.7955L166.828 62.7399L165.91 61.081H163.21C161.123 61.3323 159.089 61.8853 157.109 62.7399L155.274 62.0612C155.058 63.7201 154.95 65.5047 154.95 67.4149C154.95 69.2749 154.86 71.0343 154.68 72.6932L154.842 74.3521L154.68 78.7255L153.816 78.5748L153.168 78.9518C152.376 77.7453 151.926 76.2875 151.818 74.5784V64.7758C151.926 62.7148 152.016 60.6537 152.088 58.5927C152.196 56.5316 152.502 54.5711 153.006 52.7112L154.086 52.5604L155.274 56.4814L155.868 56.7076L157.649 56.1043L162.023 55.6519C161.231 54.2443 160.385 53.3395 159.485 52.9373L158.891 51.7309C156.948 50.1725 155.202 48.1617 153.654 45.6985L153.924 43.361C155.004 42.2551 156.354 41.8529 157.973 42.1546C160.349 42.4059 162.401 43.7129 164.128 46.0756L165.046 49.3934C165.442 49.5441 165.586 49.9463 165.478 50.5998L164.614 50.4491L164.722 51.5047L164.398 52.7112L164.722 54.1439L164.614 55.0487L165.046 55.8782C167.35 55.6268 169.348 56.5316 171.039 58.5927L171.471 65.3791C171.471 67.7417 171.183 69.9033 170.607 71.8638L169.959 72.2408L169.797 73.5981C170.337 75.0559 170.643 76.6394 170.715 78.3486C170.715 80.9626 170.589 83.5012 170.337 85.9644C170.085 88.3773 169.815 90.8154 169.527 93.2786L168.772 93.731L168.502 94.7113C167.17 94.3091 165.964 94.1834 164.884 94.3343L164.128 94.5604L163.372 94.3343L162.617 94.5604L160.241 93.8818C159.737 95.038 159.593 96.3702 159.809 97.8783C160.961 98.5318 162.149 99.1853 163.372 99.8388C164.596 100.492 165.694 101.498 166.666 102.855C167.386 104.514 167.746 106.399 167.746 108.51C167.746 111.124 167.278 113.462 166.342 115.523L164.614 115.975C162.491 115.824 160.475 115.347 158.567 114.543L157.811 114.92L157.649 115.975ZM138.05 110.094C136.971 109.842 135.963 109.239 135.027 108.284C133.731 106.575 132.633 104.69 131.734 102.629C131.338 99.3109 131.14 95.9428 131.14 92.5245C131.248 90.1618 131.392 87.8746 131.572 85.6627C131.787 83.4006 131.985 81.1636 132.165 78.9517C131.158 78.7004 130.168 78.3485 129.196 77.8961L128.926 76.011L129.466 74.3521C132.057 73.397 134.757 72.7435 137.565 72.3916C140.372 72.0397 143.09 71.3862 145.717 70.4311C146.797 71.1349 147.931 71.6878 149.119 72.09C149.119 73.0954 149.263 74.0002 149.551 74.8045C149.371 77.0164 149.137 79.2534 148.849 81.5155C148.561 83.7274 148.093 85.7633 147.445 87.6232L146.743 87.8494L145.123 83.7022L143.558 83.476C141.578 83.476 139.742 84.0541 138.05 85.2103C137.655 86.1654 137.403 87.2714 137.295 88.5281H138.05C139.85 87.5227 141.74 86.8943 143.72 86.643L145.393 87.02V89.1313L144.475 89.9608C144.367 90.6646 144.061 91.1421 143.558 91.3935L137.727 92.9016L137.133 92.6754C136.737 93.9321 136.539 95.3145 136.539 96.8226C136.467 99.7382 136.809 102.453 137.565 104.966L138.644 105.117L141.182 104.363C140.966 101.045 140.624 97.9788 140.156 95.1637L140.588 93.8818L142.1 93.2785L143.558 94.3342C144.385 96.1439 144.997 98.0542 145.393 100.065C145.789 102.076 146.041 104.187 146.149 106.399L145.825 108.661H145.123H144.152C143.576 108.108 142.946 107.781 142.262 107.681C140.75 108.234 139.346 109.038 138.05 110.094ZM164.236 110.094C164.56 109.289 164.686 108.41 164.614 107.455C164.362 106.198 163.894 105.092 163.21 104.137L159.647 102.855L159.485 109.867L160.241 110.999L162.509 111.225L164.236 110.094ZM166.234 86.643V83.476L166.342 82.4958L165.046 78.1223L163.21 77.8961L161.753 78.5748C160.817 81.038 160.313 83.8028 160.241 86.8692L160.673 87.4725L164.236 86.8692L166.234 86.643ZM143.45 79.1779L143.018 77.1421L141.884 76.8405L139.994 77.7454L139.238 79.7812H140.588L143.45 79.1779ZM128.008 70.6573L127.09 69.6017C126.694 67.792 126.496 65.8566 126.496 63.7955C127.072 61.6842 128.026 59.7237 129.358 57.914L130.87 55.8781C131.661 53.9176 132.651 52.1079 133.839 50.449L134.433 49.8458L135.027 48.4131C135.963 47.8601 136.917 47.282 137.888 46.6788C139.4 46.9804 140.732 47.6088 141.884 48.5639L142.424 50.449C142.208 51.7057 141.884 52.8871 141.452 53.993C143.972 53.44 146.185 53.9427 148.093 55.501L148.255 58.1402L147.661 58.5926L147.337 59.4221L146.419 59.6483C144.907 59.4975 143.432 59.221 141.992 58.8188C140.552 58.3664 139.13 57.9894 137.727 57.6878C135.063 61.659 132.363 65.5549 129.628 69.3754L129.466 70.2049C128.89 70.1043 128.404 70.2552 128.008 70.6573ZM138.32 67.3395L137.025 66.0576V64.3988L138.752 62.3629C139.868 62.765 140.984 63.2928 142.1 63.9463L142.262 65.379L141.614 66.5101L138.32 67.3395Z" fill="black"/>
<path d="M27.5401 18.5217C27.5793 18.5217 27.611 18.4835 27.611 18.4363C27.611 18.3891 27.5793 18.3509 27.5401 18.3509C27.501 18.3509 27.4693 18.3891 27.4693 18.4363C27.4693 18.4835 27.501 18.5217 27.5401 18.5217Z" fill="black" stroke="black" stroke-width="0.999999"/>
<path fill-rule="evenodd" clip-rule="evenodd" d="M22.5143 12.5481C19.686 12.8564 16.8886 14.1612 14.5451 16.0972C13.2292 17.1843 12.5495 18.1697 11.4522 19.5379C10.0436 21.7819 9.38993 24.1263 9.17407 26.9078C9.06944 28.2545 9.25198 29.6295 9.32988 30.9711C9.42762 31.3364 9.304 31.7411 9.38392 32.1086C9.41267 32.2357 9.46529 31.8128 9.39256 31.7149C9.33967 31.644 9.28245 32.0588 9.27641 31.9639C9.24163 31.4276 9.85157 30.3657 8.88896 32.4333C8.199 34.0732 7.99307 35.8866 7.74883 37.6742C7.57403 38.9537 7.74022 38.3113 7.55526 38.961C7.22816 40.119 7.04056 41.3251 6.95039 42.5416C6.91966 42.9557 6.94887 43.3763 6.89609 43.7872C6.84682 44.1708 6.7115 44.532 6.64576 44.912C6.56739 45.365 6.5248 45.8258 6.46431 46.2827C6.09466 47.9867 6.0468 49.742 5.66982 51.4408C5.60692 51.8352 5.53266 52.2272 5.48103 52.6239C5.41546 53.1277 5.37472 54.1702 5.18146 54.7697C5.13164 54.9241 5.02633 55.0468 4.97602 55.201C4.78408 55.7895 4.65772 56.5761 4.54341 57.1792C4.38812 59.3841 3.4749 61.2952 2.9626 63.3743C2.80504 64.0138 2.69104 64.6676 2.55526 65.3143C1.86425 68.3548 1.61844 71.4992 1.40987 74.6295C1.41792 77.5324 1.41676 80.4307 1.51019 83.3321C1.67123 85.2048 1.60005 87.0273 1.33728 88.8722C0.881027 91.6116 0.934364 94.3601 1.22062 97.1137C1.70982 99.0159 1.85306 100.958 1.97776 102.925C2.04851 106.271 2.63133 109.159 3.7158 112.222C4.19407 113.904 5.2528 115.173 6.01942 116.635C6.50228 118.263 7.10414 119.859 7.67992 121.449C8.4372 123.462 9.17715 125.483 10.0946 127.402C11.3832 129.711 12.9 131.824 14.3893 133.947C16.8657 137.18 20.0093 139.469 23.2902 141.33C27.0671 143.345 30.9776 145.066 34.987 146.28C35.6835 146.47 36.3776 146.674 37.0763 146.852C43.2359 148.426 35.0722 146.273 40.8198 147.72C42.9936 148.267 45.129 149.021 47.2915 149.631C52.7219 150.826 58.1777 151.848 63.6235 152.944C68.8748 154.174 74.2377 154.226 79.5438 154.857C84.0643 155.512 88.5669 156.322 93.077 157.069C98.5459 157.739 104.041 157.998 109.518 158.536C114.124 158.773 118.643 159.956 123.209 160.59C124.214 160.729 125.225 160.798 126.233 160.902C131.744 161.139 137.236 161.888 142.748 162C143.601 161.969 144.454 161.934 145.306 161.903C147.186 161.836 149.068 161.837 150.945 161.706C152.232 161.616 153.891 161.185 155.176 160.939C156.232 160.736 157.915 160.483 158.949 160.322C162.285 159.549 165.686 159.389 169.058 158.958C170.907 158.635 172.725 158.036 174.585 157.792C176.123 157.59 177.668 157.654 179.208 157.744C180.56 157.62 181.922 157.803 183.274 157.69C184.002 157.629 184.722 157.467 185.446 157.359C187.652 157.031 189.834 156.687 192.023 156.221C195.052 155.873 197.901 154.635 200.789 153.588C204.297 152.317 202.309 153.116 205.741 151.63C209.465 149.685 213.457 148.513 217.088 146.29C217.86 145.818 218.585 145.245 219.333 144.722C223.683 141.673 227.91 138.371 231.794 134.513C233.232 132.971 234.616 131.25 235.626 129.259C236.197 128.134 236.469 127.075 237.207 126.118C239.164 123.225 240.217 119.69 241.668 116.441C243.674 111.938 244.134 106.822 244.204 101.794C244.201 98.566 244.071 95.3487 243.527 92.1842C242.753 89.0489 241.824 85.9761 240.959 82.8767C240.28 80.2431 239.529 77.6385 238.8 75.0226C238.17 72.3522 237.535 69.6899 236.723 67.091C235.623 64.7199 234.59 62.3186 233.687 59.8271C232.487 56.8167 231.431 53.6353 229.783 50.92C229.394 50.2795 228.941 49.6991 228.52 49.0887C226.527 45.9516 223.824 43.7825 221.029 41.8088C218.257 39.7786 215.464 37.8112 212.561 36.0623C210.581 34.9567 208.673 33.6718 206.767 32.3947C204.774 31.0669 202.681 29.9915 200.611 28.8536C198.523 27.759 196.321 27.0423 194.159 26.1987C193.107 25.8078 191.973 25.7287 190.934 25.3297C189.563 24.7433 187.5 23.513 186.033 23.638C184.787 23.6511 183.616 22.8789 182.385 22.8128C181.091 22.7435 179.795 22.7825 178.5 22.7676C186.034 25.3714 182.086 22.6463 181.184 22.8059C181.122 22.8166 181.377 22.9848 181.32 22.9566C179.801 22.2084 180.917 22.5803 180.058 22.3175C178.941 21.7334 177.82 21.1335 176.613 20.8651C176.427 20.8236 176.234 20.8689 176.044 20.8585C175.481 20.8292 175.416 20.7935 174.84 20.6786C173.316 20.1235 171.763 19.733 170.172 19.6093C169.246 19.6321 166.454 18.6036 165.874 18.9621C164.884 18.6523 163.827 18.6084 162.845 18.2577C161.929 17.9302 161.041 17.4985 160.138 17.1242C157.957 16.3811 155.77 15.6421 153.516 15.2835C151.921 15.0296 150.312 15.0362 148.707 14.9848C148.385 15.6083 147.463 14.5544 147.014 14.9655C146.935 15.0378 147.156 15.1445 147.185 15.2587C147.197 15.3002 147.112 15.2476 147.08 15.2266C146.705 14.9768 146.346 14.6949 145.969 14.4483C145.553 14.1758 145.126 13.9293 144.704 13.6698C141.687 12.0871 138.615 11.3606 135.335 11.3836C133.909 11.4762 132.482 11.5688 131.056 11.6615C130.943 11.6397 130.604 11.6027 130.718 11.5963C131.554 11.5497 132.392 11.5846 133.228 11.5405C133.459 11.5284 132.766 11.4864 132.536 11.5005C132.464 11.505 132.403 11.5636 132.337 11.5951C132.078 11.5126 131.819 11.43 131.56 11.3475C131.207 11.2525 129.941 10.8948 129.59 10.8721C129.498 10.8655 129.428 11.0283 129.337 11.0078C128.999 10.9315 128.69 10.725 128.363 10.5952C126.733 9.94878 127.281 10.138 125.623 9.78554C122.359 9.23244 119.065 9.69148 115.803 10.0053C115.527 10.0136 115.252 10.0391 114.976 10.0312C114.668 10.0219 113.745 9.97795 114.053 9.95314C114.899 9.88496 115.75 9.98455 116.595 9.90068C116.895 9.87101 115.995 9.84204 115.697 9.78981C112.5 9.22904 116.458 9.79637 113.191 9.35516C110.798 9.15471 108.399 9.24153 106.003 9.28517C105.173 9.55912 108.401 23.652 109.231 23.378C103.753 23.462 107.497 23.3092 108.74 23.7746C112.291 24.3546 115.887 24.7762 119.467 24.3135C120.372 24.2776 121.299 24.1129 122.204 24.1503C122.456 24.1606 123.208 24.2427 122.956 24.2559C122.188 24.2959 121.418 24.2838 120.651 24.231C120.361 24.211 121.232 24.1818 121.522 24.157C121.996 24.1305 123.19 23.8574 123.604 24.0139C123.996 24.1624 124.339 24.4643 124.728 24.6253C125.26 24.8451 125.861 24.7435 126.386 24.9933C127.911 25.3098 127.095 25.0996 128.828 25.6651C129.139 25.7366 129.458 25.743 129.774 25.7494C131.134 25.777 132.494 25.7836 133.853 25.7667C134.191 25.7622 135.203 25.674 134.865 25.6856C133.934 25.7177 133.004 25.7803 132.073 25.8278C134.14 26.0176 136.166 26.5657 138.215 26.8808C138.552 26.938 138.887 27.0069 139.225 27.0524C139.426 27.0797 139.641 27.0165 139.832 27.0985C141.201 27.6865 142.377 28.9362 143.877 29.1269C147.336 30.5132 150.881 31.432 154.525 31.7953C156.883 32.1223 159.249 32.3455 161.604 32.6182C161.957 32.7145 162.305 32.8538 162.665 32.907C162.881 32.9391 163.087 32.7348 163.305 32.7456C164.03 32.7815 164.719 33.275 165.435 33.3598C166.585 33.656 167.684 33.7649 168.855 33.8611C169.148 33.8853 169.442 33.9652 169.735 33.9328C169.782 33.9273 169.746 33.8188 169.752 33.7618C170.396 34.02 171.028 34.446 171.687 34.6328C172.042 34.7335 172.422 34.572 172.783 34.6383C173.03 34.6838 173.266 34.7918 173.507 34.8686C173.882 35.0598 174.258 35.2512 174.633 35.4425C174.806 35.4318 174.984 35.3554 175.151 35.4104C175.553 35.5425 175.911 35.8266 176.305 35.9917C177.994 36.6998 180.13 36.4463 181.743 36.5874C180.74 36.5626 179.735 36.5829 178.733 36.513C178.694 36.5103 178.685 36.409 178.713 36.376C178.75 36.3309 178.817 36.3373 178.87 36.3473C179.596 36.4896 180.239 37.0306 180.957 37.2052C181.384 37.3513 181.799 37.5564 182.237 37.6433C182.494 37.6945 182.758 37.6106 183.019 37.6147C183.281 37.6192 183.561 37.7892 183.803 37.6694C183.928 37.6077 183.528 37.1924 183.662 37.2137C183.787 37.2337 183.898 37.324 184.016 37.3791C185.188 38.1304 186.364 38.8566 187.665 39.2422C187.86 39.2999 188.068 39.2598 188.265 39.3086C188.552 39.3801 188.829 39.5041 189.11 39.6019C190.116 39.2807 192.166 41.2517 193.077 41.646C194.048 42.1891 195.17 42.8612 196.195 43.2543C196.525 43.3807 196.875 43.4114 197.213 43.5025C198.189 43.7657 199.066 44.2916 199.99 44.7377C200.294 44.4288 200.115 44.5174 200.706 45.0075C201.946 46.0364 203.084 47.2299 204.262 48.3547C207.085 50.4769 209.967 52.5176 213.11 53.8892C213.497 54.1192 213.873 54.3749 214.27 54.5794C214.505 54.7008 215.093 54.8388 215.351 55.0524C216.131 55.6969 216.763 56.6299 217.363 57.4861C217.67 57.9958 218.767 59.8236 218.994 60.1779C219.266 60.6007 219.586 60.9785 219.842 61.4155C220.662 62.816 221.081 64.4885 221.849 65.9256C222.102 66.4365 222.348 66.9532 222.61 67.4583C222.934 68.0846 223.343 68.6475 223.639 69.294C223.876 69.8127 224.163 70.8481 224.351 71.3744C224.468 71.6999 224.606 72.0138 224.733 72.3335C225.28 73.343 225.462 74.4463 225.787 75.5787C226.116 76.7224 226.509 77.8416 226.708 79.0363C227.395 81.5288 227.818 84.0964 228.405 86.6235C229.073 89.6244 229.765 92.7587 231.277 95.3294C231.667 96.2126 231.493 96.9842 231.355 97.9401C231.056 100.004 231.17 99.0691 230.988 101.359C230.921 102.815 230.982 104.395 230.671 105.817C230.292 107.543 229.636 109.19 229.307 110.937C229.14 111.496 228.998 112.067 228.806 112.615C228.453 113.625 227.987 114.573 227.621 115.576C227.375 116.248 227.208 116.959 226.955 117.628C226.863 117.871 226.742 118.097 226.635 118.332C226.542 118.493 225.744 119.929 225.506 120.164C225.428 120.241 225.293 120.154 225.206 120.213C224.187 120.919 223.089 122.167 222.022 122.77C218.324 125.628 214.816 128.837 210.996 131.457C206.827 133.511 202.601 135.373 198.361 137.201C196.987 137.836 195.64 138.557 194.254 139.15C191.799 140.201 189.146 140.206 186.638 141.014C185.371 141.297 184.281 141.57 183.001 141.741C180.585 142.065 178.14 141.921 175.719 142.169C171.951 142.443 168.238 143.104 164.515 143.842C161.024 144.35 157.514 144.649 154.034 145.27C152.389 145.597 150.795 145.832 149.123 145.826C148.582 145.824 147.839 146.278 147.5 145.772C147.182 145.298 153.429 145.936 146.671 145.412C139.547 145.033 148.77 145.491 141.33 145.232C137.801 145.109 134.284 144.662 130.763 144.394C129.626 144.295 126.585 144.043 125.484 143.894C121.642 143.37 117.865 142.248 113.986 142.063C111.146 141.827 108.319 141.389 105.476 141.205C101.416 140.942 103.934 141.215 100.117 141.131C99.3138 141.114 98.5121 141.041 97.7098 140.996C93.2426 140.702 88.7929 140.185 84.3708 139.361C81.5005 138.819 82.9804 139.14 79.9337 138.379C76.3614 137.638 72.7369 137.198 69.1438 136.641C68.1528 136.455 67.1619 136.27 66.1709 136.084C65.203 135.927 64.2332 135.787 63.2672 135.613C62.2578 135.432 61.2574 135.18 60.2455 135.02C58.5385 134.749 56.7965 134.673 55.0849 134.456C54.2558 134.35 53.4306 134.204 52.6034 134.078C52.5131 134.067 48.8097 133.677 48.5113 133.612C47.8496 133.467 47.2094 133.205 46.5583 133.002C44.641 132.406 42.7192 131.825 40.7543 131.493C39.645 131.236 38.5193 131.071 37.422 130.747C35.2662 130.111 33.2215 128.982 31.0749 128.302C29.6962 127.52 28.2903 126.875 26.8878 126.168C26.1931 125.817 25.5616 125.264 24.8313 125.041C24.7249 125.01 24.6186 125.106 24.5121 125.138C23.2376 123.778 22.4621 121.839 21.2831 120.356C20.9136 119.775 20.5898 119.147 20.1748 118.612C20.136 118.562 20.0374 118.619 20.0093 118.56C19.613 117.72 19.3886 116.733 18.959 115.905C18.6092 115.385 18.5493 114.602 18.3656 114.004C18.0842 113.088 17.6594 112.36 17.3785 111.443C16.8603 110.071 16.2385 108.767 15.5412 107.526C15.2255 106.268 15.051 104.952 14.78 103.679C14.7099 103.35 14.5986 103.034 14.538 102.702C14.4707 102.334 14.4445 101.957 14.3977 101.584C14.1116 99.4203 14.116 97.199 13.5382 95.092C13.28 94.2604 13.3243 92.4152 13.4376 91.4728C14.0606 88.6248 14.5817 85.7668 14.3534 82.7934C14.2962 81.2449 14.2238 79.7078 14.0513 78.1702C14.0254 77.9414 13.8326 76.6134 13.8213 76.2298C13.8156 76.04 13.8443 75.851 13.8578 75.6616C14.03 73.3186 15.0823 70.8015 15.248 68.4084C15.7709 65.6732 16.4998 62.9829 16.7566 60.1857C16.9417 59.3451 17.0964 58.7164 17.213 57.8408C17.3004 57.1855 17.4364 55.8901 17.4056 55.1383C17.4048 55.1142 17.2734 55.3823 17.3797 55.2033C18.2909 52.8089 18.9639 50.3079 19.1332 47.6649C19.1562 47.206 19.1774 46.7471 19.1996 46.2883C19.1909 45.8335 19.1608 45.3786 19.1737 44.9241C19.2067 43.8803 19.5903 42.8558 19.5911 41.8032C19.8139 40.5573 19.8893 39.2736 20.2022 38.0617C20.454 37.2826 20.8003 36.5506 21.0503 35.7707C21.623 33.9843 21.7279 31.9988 21.7369 30.1072C21.7082 29.6212 21.7045 29.1324 21.6533 28.6491C21.4814 27.0275 21.0061 29.2289 21.2433 29.6843C23.3928 28.4416 25.6649 27.4836 27.7356 26.0367C28.5303 25.5934 23.309 12.1049 22.5143 12.5481Z" fill="black" stroke="black" stroke-width="1.00157"/>
<path d="M221.34 52.2962C221.379 52.2962 221.411 52.258 221.411 52.2108C221.411 52.1636 221.379 52.1254 221.34 52.1254C221.301 52.1254 221.27 52.1636 221.27 52.2108C221.27 52.258 221.301 52.2962 221.34 52.2962Z" fill="black" stroke="black" stroke-width="0.999999"/>
<path d="M237.269 121.12C237.309 121.12 237.34 121.081 237.34 121.034C237.34 120.987 237.309 120.949 237.269 120.949C237.23 120.949 237.199 120.987 237.199 121.034C237.199 121.081 237.23 121.12 237.269 121.12Z" fill="black" stroke="black" stroke-width="0.999999"/>
<path fill-rule="evenodd" clip-rule="evenodd" d="M107.882 10.6223C111.008 12.1036 100.935 9.56258 102.343 11.0011C107.146 12.2272 104.494 10.8164 108.123 14.666C108.776 15.3586 107.077 12.8245 106.257 12.4684C104.206 11.5765 101.964 11.5266 99.8175 11.0558C97.4297 10.7334 92.2062 13.9702 102.434 12.5512C103.037 12.4675 101.608 11.4471 101.079 11.0889C97.198 8.46188 97.1184 8.83511 93.0455 7.95631C92.3777 5.76976 91.0125 8.56428 90.1055 8.11551C86.2921 6.22836 88.8176 6.5014 84.0735 5.01802C81.1297 4.09757 78.5666 4.85717 75.4997 5.17825C73.7325 4.64095 78.0543 6.0436 77.6588 4.15592C77.3961 2.90161 75.6741 3.10492 74.6219 2.82556C72.0309 2.13766 67.1991 2.97471 65.359 3.95745C64.2388 4.55574 63.7459 6.17426 62.9393 7.28265C65.3137 2.36241 62.8568 5.75895 68.2621 3.86776C68.6085 3.74659 67.5656 3.63361 67.2326 3.46711C66.5344 3.11805 65.8902 2.61287 65.1733 2.32354C60.5195 0.445306 60.388 1.22307 54.348 1.31429C58.4731 0.203715 48.6419 2.34946 50.0622 2.91351C51.2896 3.40091 52.676 2.75212 53.9378 3.08982C54.5711 3.25933 55.0237 3.94285 55.5582 4.38443C55.6752 4.4811 55.3182 4.20063 55.1909 4.12507C54.1258 3.4931 53.0517 2.88336 51.9821 2.26249C50.4067 2.35817 48.8267 2.37506 47.256 2.54957C43.0685 3.01474 53.3273 4.01142 49.2536 2.68724C48.8656 2.5611 48.4627 2.51293 48.0673 2.42577C45.4537 2.39852 42.5421 1.96196 40.4144 4.41265C39.4799 5.489 38.9416 6.97279 38.2749 8.30561C38.1961 8.4629 38.1292 9.01272 38.1961 8.84778C38.7259 7.54203 39.1789 6.19343 39.6703 4.86627C36.7567 5.32339 33.0295 5.28163 30.4606 7.59987C29.5299 8.43971 28.2613 9.51537 28.3181 10.9112C28.4937 15.2318 35.7514 16.2433 36.6805 20.4228C37.4586 20.9486 38.0787 10.7687 37.3006 10.2429C37.3299 14.075 37.2184 17.9124 37.3886 21.7392C37.4058 22.1163 37.5409 22.7407 37.8552 22.724C39.1674 22.6543 40.4744 22.1804 41.6641 21.5125C42.8278 20.8592 43.7552 19.7207 44.8008 18.8248C46.288 17.2611 47.7983 15.7286 49.2623 14.1337C49.4118 13.9709 49.7648 13.3751 49.6339 13.5595C46.5488 17.9034 49.7293 14.1173 46.9708 16.2578C46.9076 16.3068 47.0732 16.3901 47.1243 16.4562C46.2513 16.4518 45.3781 16.4469 44.505 16.4424C47.4346 15.7188 43.1655 16.0773 50.1243 16.39C50.4164 16.4031 50.7066 16.3245 50.9986 16.3121C51.1981 16.3038 51.7967 16.3279 51.5971 16.3276C50.6643 16.3267 49.7316 16.3155 48.7988 16.3093C45.0209 12.0571 48.6651 16.267 49.7382 16.5923C51.4041 17.0973 53.1711 16.7956 54.8838 16.9618C55.4276 17.0146 55.9575 17.2557 56.5031 17.2488C57.3038 17.2384 58.0935 17.0234 58.8888 16.9107C58.3502 16.7178 57.5593 16.9126 57.2729 16.332C57.0774 15.9361 57.9313 15.7508 58.3146 15.7471C60.6753 15.7243 59.7348 17.0681 62.2147 17.5283C70.1994 19.0101 68.1806 19.3201 73.2635 14.6438C70.2355 18.465 73.0634 15.8036 67.2337 17.2774C66.9059 17.3602 67.8751 17.5134 68.2031 17.5955C69.1057 17.8214 70.0091 18.0535 70.9229 18.2008C73.3645 18.5944 75.8094 18.9757 78.2646 19.2176C78.7329 19.2638 79.2004 19.1144 79.6684 19.0628C78.4244 19.1725 77.0815 18.7984 75.9364 19.3918C75.3315 19.7053 77.1959 19.8736 77.8453 20.0076C78.6398 20.1715 79.4615 20.099 80.2531 20.2824C81.0759 20.473 81.8964 20.73 82.6673 21.1245C89.9289 24.841 82.4264 21.9093 88.3558 24.0645C89.3468 24.0653 90.3379 24.0664 91.3289 24.0664C91.8872 23.747 92.3888 23.1853 93.0039 23.1082C93.5681 23.0374 94.0928 23.4923 94.6444 23.6505C96.8409 24.2805 99.0408 24.8948 101.247 25.4723C101.552 25.552 101.862 25.6217 102.174 25.6213C102.564 25.6208 102.95 25.5202 103.338 25.4695C102.041 24.9576 100.645 24.7207 99.4481 23.9337C98.8426 23.5356 97.5839 21.5006 98.1122 22.034C99.1321 23.0637 99.7328 24.7408 100.934 25.4338C102.423 26.293 107.212 27.0171 109.324 26.7647C110.51 26.6229 111.658 26.182 112.824 25.8907C113.724 25.4713 108.782 10.2029 107.882 10.6223Z" fill="black" stroke="black" stroke-width="1.00157"/>
</svg>
